<mxfile host="app.diagrams.net" agent="Mozilla/5.0 (X11; Linux x86_64) AppleWebKit/537.36 (KHTML, like Gecko) Chrome/130.0.0.0 Safari/537.36" version="24.8.3">
  <diagram name="Trang-1" id="aMYgGXJq7WNOMmb9M_a5">
    <mxGraphModel dx="959" dy="662" grid="0" gridSize="10" guides="1" tooltips="1" connect="1" arrows="1" fold="1" page="1" pageScale="1" pageWidth="827" pageHeight="1169" math="0" shadow="0">
      <root>
        <mxCell id="0" />
        <mxCell id="1" parent="0" />
        <mxCell id="AeHlHFdTVYe7kflq4C30-4" value="&lt;font style=&quot;font-size: 60px;&quot;&gt;2&lt;/font&gt;" style="rounded=1;whiteSpace=wrap;html=1;gradientColor=none;" vertex="1" parent="1">
          <mxGeometry x="89" y="145" width="674" height="395" as="geometry" />
        </mxCell>
        <mxCell id="AeHlHFdTVYe7kflq4C30-5" value="&lt;font style=&quot;font-size: 48px;&quot;&gt;&lt;br&gt;&lt;/font&gt;&lt;div style=&quot;font-size: 48px;&quot;&gt;&lt;font style=&quot;font-size: 48px;&quot;&gt;&lt;br&gt;&lt;/font&gt;&lt;/div&gt;&lt;div style=&quot;font-size: 48px;&quot;&gt;&lt;span style=&quot;background-color: initial;&quot;&gt;1&lt;/span&gt;&lt;/div&gt;" style="rounded=1;whiteSpace=wrap;html=1;" vertex="1" parent="1">
          <mxGeometry x="89" y="145" width="178" height="395" as="geometry" />
        </mxCell>
        <mxCell id="AeHlHFdTVYe7kflq4C30-6" value="Hoán vị&amp;nbsp;" style="rounded=1;whiteSpace=wrap;html=1;" vertex="1" parent="1">
          <mxGeometry x="108" y="189" width="141" height="38" as="geometry" />
        </mxCell>
        <mxCell id="AeHlHFdTVYe7kflq4C30-7" value="Tổ hợp&amp;nbsp;" style="rounded=1;whiteSpace=wrap;html=1;" vertex="1" parent="1">
          <mxGeometry x="107.5" y="249" width="141" height="38" as="geometry" />
        </mxCell>
        <mxCell id="AeHlHFdTVYe7kflq4C30-8" value="Chỉnh hợp" style="rounded=1;whiteSpace=wrap;html=1;" vertex="1" parent="1">
          <mxGeometry x="107.5" y="312" width="141" height="38" as="geometry" />
        </mxCell>
        <mxCell id="AeHlHFdTVYe7kflq4C30-9" value="&lt;font style=&quot;font-size: 30px;&quot;&gt;Input&lt;/font&gt;" style="rounded=1;whiteSpace=wrap;html=1;" vertex="1" parent="1">
          <mxGeometry x="301" y="464" width="429" height="60" as="geometry" />
        </mxCell>
      </root>
    </mxGraphModel>
  </diagram>
</mxfile>
